<svg id="Слой_1" data-name="Слой 1" xmlns="http://www.w3.org/2000/svg" viewBox="0 0 181.45 126.63"><defs><style>.cls-1{fill:#fff;}.cls-2{fill:#d6ba00;}.cls-3{isolation:isolate;}</style></defs><g id="Layer_1" data-name="Layer 1"><path class="cls-1" d="M152.79,35.3c-.3-.3-3.4-2.6-10-2.6a30.52,30.52,0,0,0-5.2.5c-1.2-8.7-8.5-12.9-8.8-13.2L127,19l-1.2,1.6a23.65,23.65,0,0,0-3.1,7.3,17.51,17.51,0,0,0,2,13.6c-3,1.7-7.9,2.1-9,2.2H34.89a3.8,3.8,0,0,0-3.8,3.8,59.05,59.05,0,0,0,3.5,20.8c2.8,7.3,7,12.7,12.3,16,6,3.7,15.9,5.8,27,5.8a83.73,83.73,0,0,0,15-1.4,62.32,62.32,0,0,0,19.6-7.1,56.2,56.2,0,0,0,13.4-10.9,70.66,70.66,0,0,0,13-22.5H136c7,0,11.3-2.8,13.7-5.2a14.25,14.25,0,0,0,3.6-5.4l.5-1.5-1-.8Z"/></g><g id="Слой_2" data-name="Слой 2"><path class="cls-2" d="M58.69,31.5c2.7,2.7,3.2,6.9,3.3,8.9a1.19,1.19,0,0,1-1,1.2h-.1c-2-.1-6.2-.6-8.9-3.3s-3.2-6.9-3.3-8.9a1.19,1.19,0,0,1,1.1-1.2h.1C51.79,28.3,56,28.8,58.69,31.5Z"/><path class="cls-2" d="M74.19,38.2c-2.7,2.7-6.9,3.2-8.9,3.3a1.19,1.19,0,0,1-1.2-1.1v-.1c.1-2,.6-6.2,3.3-8.9s6.9-3.2,8.9-3.3a1.19,1.19,0,0,1,1.2,1.1v.1C77.49,31.4,76.89,35.5,74.19,38.2Z"/><path class="cls-2" d="M58.69,17.6c2.7,2.7,3.2,6.9,3.3,8.9a1.19,1.19,0,0,1-1.1,1.2h-.1c-2-.1-6.2-.6-8.9-3.3s-3.2-6.9-3.3-8.9a1.19,1.19,0,0,1,1.1-1.2h.1C51.79,14.4,56,14.9,58.69,17.6Z"/><path class="cls-2" d="M74.19,24.3c-2.7,2.7-6.9,3.2-8.9,3.3a1.28,1.28,0,0,1-1.2-1.1v-.1c.1-2,.6-6.1,3.3-8.9s6.9-3.2,8.9-3.3a1.19,1.19,0,0,1,1.2,1v.1C77.49,17.5,76.89,21.6,74.19,24.3Z"/><path class="cls-2" d="M67.79,9c0,3.8-2.6,7.1-3.9,8.6a1.12,1.12,0,0,1-1.6.1l-.1-.1c-1.3-1.5-3.9-4.8-3.9-8.6s2.6-7.2,3.9-8.6a1.12,1.12,0,0,1,1.6-.1l.1.1C65.19,1.8,67.79,5.2,67.79,9Z"/><g class="cls-3"><path class="cls-2" d="M18.26,116.58v6.11a13.64,13.64,0,0,1-4.47,1,10.57,10.57,0,0,1-7.69-3,10.49,10.49,0,0,1-3-7.25,10.16,10.16,0,0,1,.82-4,10.53,10.53,0,0,1,2.19-3.34,10.13,10.13,0,0,1,7.51-3.1,12.4,12.4,0,0,1,4.65,1v6.17a5.53,5.53,0,0,0-4.5-2.18,5.2,5.2,0,0,0-3.58,1.31,5.37,5.37,0,0,0-1.73,4.09,5.09,5.09,0,0,0,1.61,3.87,5.19,5.19,0,0,0,3.7,1.38A5.91,5.91,0,0,0,18.26,116.58Z"/><path class="cls-2" d="M21.54,103.34H29.6a6.48,6.48,0,0,1,4.86,1.76,6.11,6.11,0,0,1,1.7,4.47,5.17,5.17,0,0,1-4.33,5.52l6.24,8.14H31.65L26.7,115.6v7.63H21.54Zm5.16,4v4.92h1a3.45,3.45,0,0,0,2.5-.81,2.25,2.25,0,0,0,.66-1.67,2.16,2.16,0,0,0-.69-1.67,3.36,3.36,0,0,0-2.47-.77Z"/><path class="cls-2" d="M53.6,123.23l-1.22-3.34H45.16l-1.34,3.34H38.36L46,103.34h5.63l7.49,19.89Zm-7-7.28H51l-2.24-6.44Z"/><path class="cls-2" d="M72.8,103.34v4.38H66.57V111h5.67v4.39H66.57v7.81H61.41V103.34Z"/><path class="cls-2" d="M87.63,107.72H83.39v15.51H78.23V107.72H74v-4.38H87.63Z"/><path class="cls-2" d="M105.16,123.23H96.87V103.34h7.69a5.62,5.62,0,0,1,4.36,1.55,6,6,0,0,1,.65,6.17,3.3,3.3,0,0,1-1.61,1.55,4.39,4.39,0,0,1,2.71,1.2,4.78,4.78,0,0,1,1.35,3.64,5.27,5.27,0,0,1-1.46,3.9A7.22,7.22,0,0,1,105.16,123.23ZM102,107.31v3.87h1a2.66,2.66,0,0,0,2-.62,1.78,1.78,0,0,0,.48-1.32,2,2,0,0,0-.48-1.34,2.74,2.74,0,0,0-2-.59Zm0,7.72v4.18h1.16c1.67,0,2.73-.27,3.19-.81a1.88,1.88,0,0,0,.42-1.28,1.91,1.91,0,0,0-.51-1.43c-.44-.44-1.5-.66-3.19-.66Z"/><path class="cls-2" d="M115.3,103.34h8a6.45,6.45,0,0,1,4.86,1.76,6.11,6.11,0,0,1,1.7,4.47,5.18,5.18,0,0,1-4.32,5.52l6.23,8.14h-6.41l-5-7.63v7.63H115.3Zm5.16,4v4.92h1a3.49,3.49,0,0,0,2.51-.81,2.28,2.28,0,0,0,.65-1.67,2.18,2.18,0,0,0-.68-1.67,3.4,3.4,0,0,0-2.48-.77Z"/><path class="cls-2" d="M145.3,103.34v4.38h-6.15V111H145v4.39h-5.82v3.43h6.15v4.38H134V103.34Z"/><path class="cls-2" d="M146.49,103.34h5.4l3.45,12.85,4.21-12.85h4.12l3.9,12.85,3.76-12.85h5.4l-6.36,19.89H165.1l-3.61-11.51-3.82,11.51h-5.25Z"/></g></g></svg>