<svg id="Слой_1" data-name="Слой 1" xmlns="http://www.w3.org/2000/svg" viewBox="0 0 463.18 90.1"><defs><style>.cls-1{fill:#fcfcfc;}.cls-2{fill:#d6ba00;}.cls-3{isolation:isolate;}</style></defs><g id="Layer_1" data-name="Layer 1"><path class="cls-1" d="M121.7,35.3c-.3-.3-3.4-2.6-10-2.6a30.52,30.52,0,0,0-5.2.5C105.3,24.5,98,20.3,97.7,20l-1.8-1-1.1,1.6a23.65,23.65,0,0,0-3.1,7.3,16.88,16.88,0,0,0,2.1,13.6c-3,1.7-7.9,2.1-8.9,2.2H3.8A3.8,3.8,0,0,0,0,47.5,59.05,59.05,0,0,0,3.5,68.3c2.8,7.3,6.9,12.7,12.3,16,6,3.7,15.9,5.8,27,5.8a84.59,84.59,0,0,0,15-1.4,62.32,62.32,0,0,0,19.6-7.1A53.81,53.81,0,0,0,90.7,70.7c6.4-7.2,10.3-15.3,13.1-22.5h1.1c7,0,11.3-2.8,13.7-5.2a15.75,15.75,0,0,0,3.7-5.4l.5-1.5-1.1-.8Z"/></g><g id="Слой_2" data-name="Слой 2"><path class="cls-2" d="M27.6,31.5c2.7,2.7,3.2,6.9,3.3,8.9a1.16,1.16,0,0,1-1.2,1.2c-2-.1-6.2-.6-8.9-3.3s-3.2-6.9-3.3-8.9a1.16,1.16,0,0,1,1.2-1.2C20.7,28.3,24.9,28.8,27.6,31.5Z"/><path class="cls-2" d="M43.1,38.2c-2.7,2.7-6.9,3.2-8.9,3.3A1.16,1.16,0,0,1,33,40.3c.1-2,.6-6.2,3.3-8.9s6.9-3.2,8.9-3.3a1.16,1.16,0,0,1,1.2,1.2C46.3,31.4,45.8,35.5,43.1,38.2Z"/><path class="cls-2" d="M27.6,17.6c2.7,2.7,3.2,6.9,3.3,8.9a1.16,1.16,0,0,1-1.2,1.2c-2-.1-6.2-.6-8.9-3.3s-3.2-6.9-3.3-8.9a1.16,1.16,0,0,1,1.2-1.2C20.7,14.4,24.9,14.9,27.6,17.6Z"/><path class="cls-2" d="M43.1,24.3c-2.7,2.7-6.9,3.2-8.9,3.3A1.16,1.16,0,0,1,33,26.4c.1-2,.6-6.2,3.3-8.9s6.9-3.2,8.9-3.3a1.16,1.16,0,0,1,1.2,1.2C46.3,17.5,45.8,21.6,43.1,24.3Z"/><path class="cls-2" d="M36.7,9c0,3.8-2.6,7.1-3.9,8.6a1,1,0,0,1-1.6,0c-1.4-1.5-3.9-4.8-3.9-8.6S29.9,1.9,31.2.4a1,1,0,0,1,1.6,0C34.1,1.8,36.7,5.1,36.7,9Z"/><g class="cls-3"><path class="cls-2" d="M153.28,69.78V81a25.23,25.23,0,0,1-8.22,1.81,19.34,19.34,0,0,1-14.13-5.48,18.7,18.7,0,0,1-4-20.64,19.42,19.42,0,0,1,4-6.13,18.57,18.57,0,0,1,13.8-5.7,23,23,0,0,1,8.55,1.86V58.06a10.18,10.18,0,0,0-8.27-4,9.47,9.47,0,0,0-6.58,2.41,9.82,9.82,0,0,0-3.17,7.5,9.35,9.35,0,0,0,3,7.12,9.55,9.55,0,0,0,6.8,2.52A10.89,10.89,0,0,0,153.28,69.78Z"/><path class="cls-2" d="M159.3,45.46h14.79q5.81,0,8.92,3.23a11.24,11.24,0,0,1,3.12,8.22A9.51,9.51,0,0,1,178.19,67L189.64,82H177.86l-9.09-14V82H159.3Zm9.47,7.34v9h1.81a6.42,6.42,0,0,0,4.6-1.48,4.18,4.18,0,0,0,1.21-3.07,4,4,0,0,0-1.26-3.07,6.28,6.28,0,0,0-4.55-1.42Z"/><path class="cls-2" d="M218.17,82l-2.24-6.13H202.67L200.21,82h-10l14-36.53h10.35L228.3,82ZM205.3,68.63h8.11L209.3,56.8Z"/><path class="cls-2" d="M253.44,45.46v8H242v6.08H252.4v8H242V82h-9.47V45.46Z"/><path class="cls-2" d="M280.66,53.51h-7.78V82h-9.47V53.51h-7.78v-8h25Z"/><path class="cls-2" d="M312.86,82H297.63V45.46h14.13c3.62,0,6.28.95,8,2.85A9.83,9.83,0,0,1,322,55.16a9.84,9.84,0,0,1-1,4.49,6.11,6.11,0,0,1-3,2.84,8.18,8.18,0,0,1,5,2.19,8.83,8.83,0,0,1,2.46,6.69,9.69,9.69,0,0,1-2.68,7.17Q319.43,82,312.86,82Zm-5.75-29.24v7.12h1.75a4.8,4.8,0,0,0,3.61-1.16,3.21,3.21,0,0,0,.88-2.4,3.56,3.56,0,0,0-.88-2.47,5,5,0,0,0-3.61-1.09Zm0,14.18V74.6h2.13c3.07,0,5-.5,5.86-1.48a3.46,3.46,0,0,0,.77-2.36,3.58,3.58,0,0,0-.93-2.63q-1.21-1.2-5.86-1.2Z"/><path class="cls-2" d="M331.48,45.46h14.78q5.81,0,8.93,3.23a11.24,11.24,0,0,1,3.12,8.22,10.08,10.08,0,0,1-2.9,7.61,10,10,0,0,1-5,2.52L361.82,82H350L341,68V82h-9.47ZM341,52.8v9h1.81a6.42,6.42,0,0,0,4.6-1.48,4.17,4.17,0,0,0,1.2-3.07,4,4,0,0,0-1.26-3.07,6.25,6.25,0,0,0-4.54-1.42Z"/><path class="cls-2" d="M386.57,45.46v8H375.29v6.08H386v8H375.29v6.3h11.28v8H365.81V45.46Z"/><path class="cls-2" d="M388.76,45.46h9.91L405,69.07l7.72-23.61h7.56l7.17,23.61,6.9-23.61h9.91L432.63,82h-9.7l-6.62-21.14L409.3,82h-9.64Z"/></g></g></svg>