<svg xmlns="http://www.w3.org/2000/svg" viewBox="0 0 175.67 123.23"><defs><style>.cls-1,.cls-2{fill:#d6ba00;}.cls-2{font-size:29.82px;font-family:FuturaPT-Bold, Futura PT;font-weight:700;}</style></defs><g id="Layer_1" data-name="Layer 1"><path class="cls-1" d="M150.9,35.31c-.34-.28-3.42-2.62-10-2.62a31.38,31.38,0,0,0-5.19.46c-1.25-8.72-8.49-12.94-8.78-13.16l-1.77-1L124,20.61a24.3,24.3,0,0,0-3.13,7.29,17.29,17.29,0,0,0,2,13.62c-3,1.71-7.92,2.11-9,2.17H33a3.82,3.82,0,0,0-3.82,3.82,57.75,57.75,0,0,0,3.53,20.8c2.79,7.29,6.95,12.71,12.31,16,6,3.7,15.9,5.81,27,5.81a83.1,83.1,0,0,0,15-1.37,61.78,61.78,0,0,0,19.6-7.12A53.72,53.72,0,0,0,120,70.7c6.44-7.24,10.26-15.33,13-22.51h1.14c7,0,11.34-2.79,13.73-5.19a15.21,15.21,0,0,0,3.65-5.36l.51-1.48-1.17-.85Z"/></g><g id="Слой_2" data-name="Слой 2"><path class="cls-1" d="M56.79,31.55c2.72,2.71,3.24,6.86,3.33,8.86A1.1,1.1,0,0,1,59,41.57c-2-.09-6.15-.61-8.86-3.32s-3.24-6.86-3.33-8.87a1.11,1.11,0,0,1,1.16-1.16C49.94,28.31,54.08,28.84,56.79,31.55Z"/><path class="cls-1" d="M72.31,38.25c-2.72,2.71-6.86,3.23-8.87,3.32a1.11,1.11,0,0,1-1.16-1.16c.09-2,.62-6.15,3.33-8.86s6.86-3.24,8.86-3.33a1.11,1.11,0,0,1,1.16,1.16C75.55,31.39,75,35.53,72.31,38.25Z"/><path class="cls-1" d="M56.79,17.65c2.72,2.71,3.24,6.85,3.33,8.86A1.11,1.11,0,0,1,59,27.67c-2-.09-6.15-.61-8.86-3.33s-3.24-6.86-3.33-8.86a1.11,1.11,0,0,1,1.16-1.16C49.94,14.41,54.08,14.93,56.79,17.65Z"/><path class="cls-1" d="M72.31,24.34c-2.72,2.72-6.86,3.24-8.87,3.33a1.12,1.12,0,0,1-1.16-1.16c.09-2,.62-6.15,3.33-8.86s6.86-3.24,8.86-3.33a1.1,1.1,0,0,1,1.16,1.16C75.55,17.48,75,21.63,72.31,24.34Z"/><path class="cls-1" d="M65.9,9c0,3.84-2.56,7.14-3.91,8.62a1.13,1.13,0,0,1-1.65,0C59,16.12,56.43,12.82,56.43,9S59,1.84,60.34.36A1.13,1.13,0,0,1,62,.36C63.34,1.84,65.9,5.15,65.9,9Z"/><text class="cls-2" transform="translate(0 123.23)">CRAFT BREW</text></g></svg>